<?xml version="1.0" encoding="UTF-8" standalone="no"?>
<!-- Created with Inkscape (http://www.inkscape.org/) -->

<svg
   xmlns:dc="http://purl.org/dc/elements/1.1/"
   xmlns:cc="http://creativecommons.org/ns#"
   xmlns:rdf="http://www.w3.org/1999/02/22-rdf-syntax-ns#"
   xmlns:svg="http://www.w3.org/2000/svg"
   xmlns="http://www.w3.org/2000/svg"
   xmlns:sodipodi="http://sodipodi.sourceforge.net/DTD/sodipodi-0.dtd"
   xmlns:inkscape="http://www.inkscape.org/namespaces/inkscape"
   width="1366"
   height="768"
   id="svg2"
   version="1.1"
   inkscape:version="0.48.5 r10040"
   sodipodi:docname="fullBg.svg"
   inkscape:export-filename="C:\Users\Bogdan\Documents\Z. Programming\C#\TvDatabase\program-files\graphics\fullBg.png"
   inkscape:export-xdpi="90"
   inkscape:export-ydpi="90">
  <defs
     id="defs4" />
  <sodipodi:namedview
     id="base"
     pagecolor="#ffffff"
     bordercolor="#666666"
     borderopacity="1.0"
     inkscape:pageopacity="0.0"
     inkscape:pageshadow="2"
     inkscape:zoom="0.5"
     inkscape:cx="790.00204"
     inkscape:cy="491.98196"
     inkscape:document-units="px"
     inkscape:current-layer="layer1"
     showgrid="false"
     inkscape:window-width="1366"
     inkscape:window-height="706"
     inkscape:window-x="-8"
     inkscape:window-y="-8"
     inkscape:window-maximized="1" />
  <metadata
     id="metadata7">
    <rdf:RDF>
      <cc:Work
         rdf:about="">
        <dc:format>image/svg+xml</dc:format>
        <dc:type
           rdf:resource="http://purl.org/dc/dcmitype/StillImage" />
        <dc:title></dc:title>
      </cc:Work>
    </rdf:RDF>
  </metadata>
  <g
     inkscape:label="Layer 1"
     inkscape:groupmode="layer"
     id="layer1"
     transform="translate(0,-284.36218)">
    <rect
       style="fill:#101010;fill-opacity:1;fill-rule:nonzero;stroke:none"
       id="rect2985"
       width="1366"
       height="768"
       x="0"
       y="284.36218"
       rx="259.01437"
       ry="0" />
    <rect
       style="fill:#b70164;fill-opacity:1;stroke:none"
       id="rect3757"
       width="50.442497"
       height="50.442497"
       x="-745.75555"
       y="-1215.4786"
       transform="matrix(-0.70710679,0.70710677,-0.70710679,-0.70710677,0,0)" />
    <rect
       style="fill:#b70164;fill-opacity:1;stroke:none"
       id="rect3757-1"
       width="25.221249"
       height="25.221249"
       x="-695.31488"
       y="-1165.0286"
       transform="matrix(-0.70710678,0.70710678,-0.70710678,-0.70710678,0,0)" />
    <rect
       style="fill:#b70164;fill-opacity:1;stroke:none"
       id="rect3757-1-7"
       width="25.221249"
       height="25.221249"
       x="-720.53668"
       y="-1139.8042"
       transform="matrix(-0.70710678,0.70710678,-0.70710678,-0.70710678,0,0)" />
    <rect
       style="fill:#b70164;fill-opacity:1;stroke:none"
       id="rect3757-1-4"
       width="25.221249"
       height="25.221249"
       x="-695.31897"
       y="-1114.5885"
       transform="matrix(-0.70710678,0.70710678,-0.70710678,-0.70710678,0,0)" />
    <rect
       style="fill:#0160b7;fill-opacity:1;stroke:none"
       id="rect3757-0"
       width="50.442497"
       height="50.442497"
       x="-766.7702"
       y="-709.97943"
       transform="matrix(-0.70710677,-0.70710679,0.70710677,-0.70710679,0,0)" />
    <rect
       style="fill:#0160b7;fill-opacity:1;stroke:none"
       id="rect3757-1-9"
       width="25.221249"
       height="25.221249"
       x="-716.32959"
       y="-659.52948"
       transform="matrix(-0.70710678,-0.70710678,0.70710678,-0.70710678,0,0)" />
    <rect
       style="fill:#0160b7;fill-opacity:1;stroke:none"
       id="rect3757-1-7-4"
       width="25.221249"
       height="25.221249"
       x="-659.48798"
       y="766.81659"
       transform="matrix(0.70710678,-0.70710678,0.70710678,0.70710678,0,0)" />
    <rect
       style="fill:#0160b7;fill-opacity:1;stroke:none"
       id="rect3757-1-4-8"
       width="25.221249"
       height="25.221249"
       x="-634.27026"
       y="792.03259"
       transform="matrix(0.70710678,-0.70710678,0.70710678,0.70710678,0,0)" />
    <rect
       style="fill:#0160b7;fill-opacity:1;stroke:none"
       id="rect3757-1-7-4-8"
       width="25.221249"
       height="25.221249"
       x="-684.7157"
       y="792.0343"
       transform="matrix(0.70710678,-0.70710678,0.70710678,0.70710678,0,0)" />
    <rect
       style="fill:#74b701;fill-opacity:1;stroke:none"
       id="rect3757-1-7-4-2"
       width="25.221249"
       height="25.221249"
       x="-244.9908"
       y="-1676.8336"
       transform="matrix(-0.70710678,0.70710678,-0.70710678,-0.70710678,0,0)" />
    <rect
       style="fill:#74b701;fill-opacity:1;stroke:none"
       id="rect3757-1-4-8-4"
       width="25.221249"
       height="25.221249"
       x="-219.77312"
       y="-1651.6178"
       transform="matrix(-0.70710678,0.70710678,-0.70710678,-0.70710678,0,0)" />
    <rect
       style="fill:#74b701;fill-opacity:1;stroke:none"
       id="rect3757-1-7-4-8-5"
       width="25.221249"
       height="25.221249"
       x="-270.2186"
       y="-1651.6158"
       transform="matrix(-0.70710678,0.70710678,-0.70710678,-0.70710678,0,0)" />
    <rect
       style="fill:#74b701;fill-opacity:1;stroke:none"
       id="rect3757-0-5"
       width="50.442497"
       height="50.442497"
       x="144.11382"
       y="1575.9564"
       transform="matrix(0.70710678,-0.70710678,0.70710678,0.70710678,0,0)" />
    <rect
       style="fill:#0160b7;fill-opacity:1;stroke:none"
       id="rect3757-0-1"
       width="50.442497"
       height="50.442497"
       x="-1122.7172"
       y="-323.60352"
       transform="matrix(-0.70710677,-0.70710679,0.70710677,-0.70710679,0,0)" />
    <rect
       style="fill:#0160b7;fill-opacity:1;stroke:none"
       id="rect3757-1-9-7"
       width="25.221249"
       height="25.221249"
       x="-1072.3193"
       y="-348.86066"
       transform="matrix(-0.70710678,-0.70710678,0.70710678,-0.70710678,0,0)" />
    <rect
       style="fill:#74b701;fill-opacity:1;stroke:none"
       id="rect3757-1-7-4-4"
       width="25.221249"
       height="25.221249"
       x="-247.87462"
       y="1198.7029"
       transform="matrix(0.70710678,-0.70710678,0.70710678,0.70710678,0,0)" />
    <rect
       style="fill:#b70164;fill-opacity:1;stroke:none"
       id="rect3757-1-4-8-0"
       width="25.221249"
       height="25.221249"
       x="-147.60144"
       y="1299.2723"
       transform="matrix(0.70710678,-0.70710678,0.70710678,0.70710678,0,0)" />
    <rect
       style="fill:#0160b7;fill-opacity:1;stroke:none"
       id="rect3757-1-7-4-8-9"
       width="25.221249"
       height="25.221249"
       x="-273.21573"
       y="1046.8259"
       transform="matrix(0.70710678,-0.70710678,0.70710678,0.70710678,0,0)" />
    <rect
       style="fill:#b70164;fill-opacity:1;stroke:none"
       id="rect3757-1-7-4-2-4"
       width="25.221249"
       height="25.221249"
       x="197.34033"
       y="-1249.0734"
       transform="matrix(-0.70710678,0.70710678,-0.70710678,-0.70710678,0,0)" />
    <rect
       style="fill:#0160b7;fill-opacity:1;stroke:none"
       id="rect3757-1-4-8-4-8"
       width="25.221249"
       height="25.221249"
       x="323.55804"
       y="-1147.8575"
       transform="matrix(-0.70710678,0.70710678,-0.70710678,-0.70710678,0,0)" />
    <rect
       style="fill:#b70164;fill-opacity:1;stroke:none"
       id="rect3757-1-7-4-8-5-8"
       width="25.221249"
       height="25.221249"
       x="172.11255"
       y="-1223.8556"
       transform="matrix(-0.70710678,0.70710678,-0.70710678,-0.70710678,0,0)" />
    <rect
       style="fill:#b70164;fill-opacity:1;stroke:none"
       id="rect3757-0-5-2"
       width="50.442497"
       height="50.442497"
       x="-197.43686"
       y="1248.8124"
       transform="matrix(0.70710678,-0.70710678,0.70710678,0.70710678,0,0)" />
    <rect
       style="fill:#74b701;fill-opacity:1;stroke:none"
       id="rect3757-4"
       width="50.442497"
       height="50.442497"
       x="222.65201"
       y="-1173.4329"
       transform="matrix(-0.70710679,0.70710677,-0.70710679,-0.70710677,0,0)" />
    <rect
       style="fill:#74b701;fill-opacity:1;stroke:none"
       id="rect3757-1-5"
       width="25.221249"
       height="25.221249"
       x="197.34387"
       y="-1198.6432"
       transform="matrix(-0.70710678,0.70710678,-0.70710678,-0.70710678,0,0)" />
    <rect
       style="fill:#74b701;fill-opacity:1;stroke:none"
       id="rect3757-1-7-5"
       width="25.221249"
       height="25.221249"
       x="222.59181"
       y="-1097.5815"
       transform="matrix(-0.70710678,0.70710678,-0.70710678,-0.70710678,0,0)" />
    <rect
       style="fill:#74b701;fill-opacity:1;stroke:none"
       id="rect3757-1-4-1"
       width="25.221249"
       height="25.221249"
       x="197.40623"
       y="-1122.7097"
       transform="matrix(-0.70710678,0.70710678,-0.70710678,-0.70710678,0,0)" />
    <rect
       style="fill:#b70164;fill-opacity:1;stroke:none"
       id="rect3757-1-7-4-8-5-8-7"
       width="25.221249"
       height="25.221249"
       x="147.58481"
       y="-1349.7267"
       transform="matrix(-0.70710678,0.70710678,-0.70710678,-0.70710678,0,0)" />
    <rect
       style="fill:#0160b7;fill-opacity:1;stroke:none"
       id="rect3757-1-7-4-4-1"
       width="25.221249"
       height="25.221249"
       x="-373.97794"
       y="1097.542"
       transform="matrix(0.70710678,-0.70710678,0.70710678,0.70710678,0,0)" />
    <rect
       style="fill:#74b701;fill-opacity:1;stroke:none"
       id="rect3757-1-4-1-1"
       width="25.221249"
       height="25.221249"
       x="273.00787"
       y="-1198.5826"
       transform="matrix(-0.70710678,0.70710678,-0.70710678,-0.70710678,0,0)" />
    <rect
       style="fill:#74b701;fill-opacity:1;stroke:none"
       id="rect3757-0-1-2"
       width="50.442497"
       height="50.442497"
       x="440.43207"
       y="14.582323"
       transform="matrix(0.70710677,0.70710679,-0.70710677,0.70710679,0,0)" />
    <rect
       style="fill:#74b701;fill-opacity:1;stroke:none"
       id="rect3757-1-9-7-7"
       width="25.221249"
       height="25.221249"
       x="490.8299"
       y="-10.674805"
       transform="matrix(0.70710678,0.70710678,-0.70710678,0.70710678,0,0)" />
    <rect
       style="fill:#0160b7;fill-opacity:1;stroke:none"
       id="rect3757-1-7-4-4-6"
       width="25.221249"
       height="25.221249"
       x="90.311234"
       y="-364.44638"
       transform="matrix(-0.70710678,0.70710678,-0.70710678,-0.70710678,0,0)" />
    <rect
       style="fill:#b70164;fill-opacity:1;stroke:none"
       id="rect3757-1-4-8-0-1"
       width="25.221249"
       height="25.221249"
       x="190.58441"
       y="-263.87692"
       transform="matrix(-0.70710678,0.70710678,-0.70710678,-0.70710678,0,0)" />
    <rect
       style="fill:#74b701;fill-opacity:1;stroke:none"
       id="rect3757-1-7-4-8-9-4"
       width="25.221249"
       height="25.221249"
       x="64.970123"
       y="-516.3233"
       transform="matrix(-0.70710678,0.70710678,-0.70710678,-0.70710678,0,0)" />
    <rect
       style="fill:#b70164;fill-opacity:1;stroke:none"
       id="rect3757-1-7-4-2-4-2"
       width="25.221249"
       height="25.221249"
       x="-140.84552"
       y="314.0759"
       transform="matrix(0.70710678,-0.70710678,0.70710678,0.70710678,0,0)" />
    <rect
       style="fill:#74b701;fill-opacity:1;stroke:none"
       id="rect3757-1-4-8-4-8-3"
       width="25.221249"
       height="25.221249"
       x="-14.627808"
       y="415.29169"
       transform="matrix(0.70710678,-0.70710678,0.70710678,0.70710678,0,0)" />
    <rect
       style="fill:#b70164;fill-opacity:1;stroke:none"
       id="rect3757-1-7-4-8-5-8-2"
       width="25.221249"
       height="25.221249"
       x="-166.07332"
       y="339.29367"
       transform="matrix(0.70710678,-0.70710678,0.70710678,0.70710678,0,0)" />
    <rect
       style="fill:#b70164;fill-opacity:1;stroke:none"
       id="rect3757-0-5-2-2"
       width="50.442497"
       height="50.442497"
       x="140.74899"
       y="-314.33688"
       transform="matrix(-0.70710678,0.70710678,-0.70710678,-0.70710678,0,0)" />
    <rect
       style="fill:#0160b7;fill-opacity:1;stroke:none"
       id="rect3757-4-1"
       width="50.442497"
       height="50.442497"
       x="-115.53387"
       y="389.7164"
       transform="matrix(0.70710679,-0.70710677,0.70710679,0.70710677,0,0)" />
    <rect
       style="fill:#0160b7;fill-opacity:1;stroke:none"
       id="rect3757-1-5-6"
       width="25.221249"
       height="25.221249"
       x="-140.84198"
       y="364.50607"
       transform="matrix(0.70710678,-0.70710678,0.70710678,0.70710678,0,0)" />
    <rect
       style="fill:#0160b7;fill-opacity:1;stroke:none"
       id="rect3757-1-7-5-8"
       width="25.221249"
       height="25.221249"
       x="-115.59405"
       y="465.56769"
       transform="matrix(0.70710678,-0.70710678,0.70710678,0.70710678,0,0)" />
    <rect
       style="fill:#0160b7;fill-opacity:1;stroke:none"
       id="rect3757-1-4-1-5"
       width="25.221249"
       height="25.221249"
       x="-140.77962"
       y="440.43951"
       transform="matrix(0.70710678,-0.70710678,0.70710678,0.70710678,0,0)" />
    <rect
       style="fill:#b70164;fill-opacity:1;stroke:none"
       id="rect3757-1-7-4-8-5-8-7-7"
       width="25.221249"
       height="25.221249"
       x="-190.60104"
       y="213.42258"
       transform="matrix(0.70710678,-0.70710678,0.70710678,0.70710678,0,0)" />
    <rect
       style="fill:#74b701;fill-opacity:1;stroke:none"
       id="rect3757-1-7-4-4-1-6"
       width="25.221249"
       height="25.221249"
       x="-35.792068"
       y="-465.60724"
       transform="matrix(-0.70710678,0.70710678,-0.70710678,-0.70710678,0,0)" />
    <rect
       style="fill:#0160b7;fill-opacity:1;stroke:none"
       id="rect3757-1-4-1-1-1"
       width="25.221249"
       height="25.221249"
       x="-65.177979"
       y="364.56662"
       transform="matrix(0.70710678,-0.70710678,0.70710678,0.70710678,0,0)" />
    <rect
       style="fill:#b70164;fill-opacity:1;stroke:none"
       id="rect3757-1-4-8-0-1-8"
       width="25.221249"
       height="25.221249"
       x="191.23888"
       y="-339.6066"
       transform="matrix(-0.70710678,0.70710678,-0.70710678,-0.70710678,0,0)" />
    <text
       xml:space="preserve"
       style="font-size:58.31358336999999600px;font-style:normal;font-variant:normal;font-weight:normal;font-stretch:normal;text-align:start;line-height:125%;letter-spacing:0px;word-spacing:0px;writing-mode:lr-tb;text-anchor:start;fill:#ffffff;fill-opacity:1;stroke:none;font-family:Odessa LET;-inkscape-font-specification:Odessa LET;stroke-opacity:1;stroke-width:0.40000000000000002;stroke-miterlimit:4;stroke-dasharray:none"
       x="39.231216"
       y="374.29614"
       id="text3802"
       sodipodi:linespacing="125%"><tspan
         sodipodi:role="line"
         id="tspan3804"
         x="39.231216"
         y="374.29614">TV Database</tspan></text>
  </g>
</svg>
